<svg width="120" height="40" viewBox="0 0 120 40" fill="none" xmlns="http://www.w3.org/2000/svg">
  <!-- Minimalistisk stadssilhouette -->
  <g id="city-silhouette">
    <!-- Byggnad 1 (kort) -->
    <rect x="8" y="20" width="8" height="16" fill="#1f2937" />
    <rect x="9" y="22" width="2" height="2" fill="#fbbf24" opacity="0.8" />
    <rect x="12" y="24" width="2" height="2" fill="#fbbf24" opacity="0.6" />
    
    <!-- Byggnad 2 (hög) -->
    <rect x="18" y="8" width="10" height="28" fill="#1f2937" />
    <rect x="20" y="12" width="2" height="2" fill="#fbbf24" opacity="0.9" />
    <rect x="24" y="14" width="2" height="2" fill="#fbbf24" opacity="0.7" />
    <rect x="20" y="18" width="2" height="2" fill="#fbbf24" opacity="0.8" />
    <rect x="24" y="20" width="2" height="2" fill="#fbbf24" opacity="0.6" />
    <rect x="22" y="24" width="2" height="2" fill="#fbbf24" opacity="0.9" />
    
    <!-- Byggnad 3 (medel) -->
    <rect x="30" y="14" width="9" height="22" fill="#1f2937" />
    <rect x="32" y="18" width="2" height="2" fill="#fbbf24" opacity="0.8" />
    <rect x="35" y="20" width="2" height="2" fill="#fbbf24" opacity="0.7" />
    <rect x="32" y="24" width="2" height="2" fill="#fbbf24" opacity="0.6" />
    
    <!-- Minimal dekoration - antenn på högsta byggnaden -->
    <line x1="23" y1="8" x2="23" y2="4" stroke="#fbbf24" stroke-width="1" opacity="0.8" />
    <circle cx="23" cy="4" r="1" fill="#fbbf24" opacity="0.8" />
  </g>
  
  <!-- Titel -->
  <text x="50" y="16" font-family="Inter, system-ui, sans-serif" font-size="12" font-weight="700" fill="#1f2937">
    STADSGUIDEN
  </text>
  <text x="50" y="28" font-family="Inter, system-ui, sans-serif" font-size="8" font-weight="400" fill="#6b7280">
    Upptäck din stad
  </text>
</svg>